# xmcd
#
# Track frame offsets: 
#        150
#        15259
#        33672
#        53727
#        86623
#        106512
#        133700
#        154378
#        173134
#        197734
#        213897
#        230259
#        247192
#
# Disc length: 3621 seconds
#
# Revision: 0
# Processed by: cddbd v1.5.1PL2 Copyright (c) Steve Scherf et al.
# Submitted via: ExactAudioCopy v0.95b3
#
DISCID=a30e230d
DTITLE=Henry Butler - Henry Butler Plays Selections on David's Alesis 
DTITLE=QS-7
DYEAR=1900
DGENRE=New Orleans
TTITLE0=Stagger Lee
TTITLE1=The Entertainer
TTITLE2=My Blue Heaven
TTITLE3=Dr. Diddley
TTITLE4=Basin St. Blues
TTITLE5=Blues After Midnight
TTITLE6=River's Invitation
TTITLE7=Do You Know What It Means To Miss New Orleans
TTITLE8=San Francisco Blues
TTITLE9=John Brown's Body
TTITLE10=Birth of the Blues
TTITLE11=Dr. James
TTITLE12=Orleans Inspiration
EXTD=
EXTT0=
EXTT1=
EXTT2=
EXTT3=
EXTT4=
EXTT5=
EXTT6=
EXTT7=
EXTT8=
EXTT9=
EXTT10=
EXTT11=
EXTT12=
PLAYORDER=
